<svg width="37" height="36" viewBox="0 0 37 36" fill="none" xmlns="http://www.w3.org/2000/svg">
<path fill-rule="evenodd" clip-rule="evenodd" d="M18.5068 19.6151L22.548 23.6517C22.7624 23.8658 23.0533 23.9862 23.3566 23.9862C23.6598 23.9862 23.9507 23.8658 24.1651 23.6517C24.3795 23.4375 24.5 23.147 24.5 22.8441C24.5 22.5411 24.3795 22.2506 24.1651 22.0364L20.1224 17.9999L24.1643 13.9634C24.2705 13.8573 24.3546 13.7315 24.4121 13.5929C24.4695 13.4543 24.499 13.3059 24.499 13.1559C24.4989 13.006 24.4693 12.8575 24.4118 12.719C24.3544 12.5804 24.2701 12.4546 24.1639 12.3486C24.0578 12.2426 23.9317 12.1585 23.793 12.1011C23.6543 12.0438 23.5056 12.0143 23.3555 12.0143C23.2054 12.0144 23.0567 12.0439 22.9181 12.1013C22.7794 12.1588 22.6534 12.2429 22.5472 12.3489L18.5068 16.3855L14.4657 12.3489C14.3603 12.2399 14.2342 12.1528 14.0947 12.0929C13.9553 12.033 13.8053 12.0014 13.6536 12C13.5018 11.9987 13.3512 12.0275 13.2107 12.0848C13.0702 12.1422 12.9426 12.2269 12.8352 12.334C12.7278 12.4412 12.6429 12.5686 12.5853 12.7089C12.5278 12.8492 12.4988 12.9995 12.5 13.1511C12.5013 13.3027 12.5327 13.4526 12.5926 13.5919C12.6524 13.7312 12.7395 13.8573 12.8486 13.9626L16.8913 17.9999L12.8493 22.0372C12.7402 22.1426 12.6532 22.2686 12.5934 22.4079C12.5335 22.5473 12.502 22.6971 12.5008 22.8487C12.4996 23.0003 12.5285 23.1506 12.5861 23.2909C12.6436 23.4312 12.7286 23.5587 12.8359 23.6658C12.9433 23.773 13.071 23.8577 13.2115 23.915C13.352 23.9724 13.5025 24.0012 13.6543 23.9998C13.8061 23.9984 13.9561 23.9668 14.0955 23.9069C14.2349 23.847 14.361 23.76 14.4664 23.6509L18.5068 19.6151Z" fill="#7C7F76"/>
</svg>
