<svg width="24" height="24" viewBox="0 0 24 24" fill="none" xmlns="http://www.w3.org/2000/svg">
  <path
    d="M15 3L9 5.1L4.35 3.3C4.01667 3.16667 3.70833 3.204 3.425 3.412C3.14167 3.62 3 3.89933 3 4.25V18.25C3 18.4667 3.06267 18.6583 3.188 18.825C3.31333 18.9917 3.484 19.1167 3.7 19.2L9 21L15 18.9L19.65 20.7C19.9833 20.8333 20.2917 20.7957 20.575 20.587C20.8583 20.3783 21 20.0993 21 19.75V5.75C21 5.53333 20.9377 5.34167 20.813 5.175C20.6883 5.00833 20.5173 4.88333 20.3 4.8L15 3ZM14 5.45V17.15L10 18.55V6.85L14 5.45Z"
    fill="#A1A499" />
</svg>