<svg width="14" height="14" viewBox="0 0 14 14" fill="none" xmlns="http://www.w3.org/2000/svg">
<path d="M5.24992 9.4325L3.22576 7.40833C3.11669 7.29926 2.96875 7.23799 2.81451 7.23799C2.66026 7.23799 2.51233 7.29926 2.40326 7.40833C2.29419 7.5174 2.23291 7.66533 2.23291 7.81958C2.23291 7.89596 2.24795 7.97159 2.27718 8.04215C2.30641 8.11271 2.34925 8.17683 2.40326 8.23083L4.84159 10.6692C5.06909 10.8967 5.43659 10.8967 5.66409 10.6692L11.8358 4.4975C11.9448 4.38843 12.0061 4.2405 12.0061 4.08625C12.0061 3.932 11.9448 3.78407 11.8358 3.675C11.7267 3.56593 11.5788 3.50465 11.4245 3.50465C11.2703 3.50465 11.1223 3.56593 11.0133 3.675L5.24992 9.4325Z" fill="white"/>
</svg>
